<svg xmlns="http://www.w3.org/2000/svg" aria-hidden="true">
  <symbol id="icon-sparkle" viewBox="0 0 24 24" fill="none" stroke="currentColor" stroke-width="1.75" stroke-linecap="round" stroke-linejoin="round">
    <path d="M12 3v3M12 18v3M3 12h3M18 12h3M5.6 5.6l2.1 2.1M16.3 16.3l2.1 2.1M5.6 18.4l2.1-2.1M16.3 7.7l2.1-2.1"/>
    <circle cx="12" cy="12" r="3"/>
  </symbol>
  <symbol id="icon-flower" viewBox="0 0 24 24" fill="none" stroke="currentColor" stroke-width="1.75" stroke-linecap="round" stroke-linejoin="round">
    <circle cx="12" cy="12" r="2"/>
    <path d="M12 2v3M12 19v3M2 12h3M19 12h3M4.9 4.9l2.1 2.1M17 17l2.1 2.1M4.9 19.1l2.1-2.1M17 7l2.1-2.1"/>
  </symbol>
  <symbol id="icon-heart" viewBox="0 0 24 24" fill="none" stroke="currentColor" stroke-width="1.75" stroke-linecap="round" stroke-linejoin="round">
    <path d="M20.8 4.6a5.5 5.5 0 0 0-7.8 0L12 5.7l-1-1.1a5.5 5.5 0 0 0-7.8 7.8l1 1.1L12 21.2l7.8-7.8 1-1.1a5.5 5.5 0 0 0 0-7.8z"/>
  </symbol>
  <symbol id="icon-home" viewBox="0 0 24 24" fill="none" stroke="currentColor" stroke-width="1.75" stroke-linecap="round" stroke-linejoin="round">
    <path d="M3 10.5 12 3l9 7.5V20a1 1 0 0 1-1 1h-5v-6H9v6H4a1 1 0 0 1-1-1z"/>
  </symbol>
  <symbol id="icon-face" viewBox="0 0 24 24" fill="none" stroke="currentColor" stroke-width="1.75" stroke-linecap="round" stroke-linejoin="round">
    <circle cx="12" cy="12" r="9"/>
    <path d="M8 14s1.5 2 4 2 4-2 4-2"/>
    <line x1="9" y1="9" x2="9.01" y2="9"/>
    <line x1="15" y1="9" x2="15.01" y2="9"/>
  </symbol>
  <symbol id="icon-eye" viewBox="0 0 24 24" fill="none" stroke="currentColor" stroke-width="1.75" stroke-linecap="round" stroke-linejoin="round">
    <path d="M2 12s4-7 10-7 10 7 10 7-4 7-10 7S2 12 2 12z"/>
    <circle cx="12" cy="12" r="2.5"/>
  </symbol>
  <symbol id="icon-body" viewBox="0 0 24 24" fill="none" stroke="currentColor" stroke-width="1.75" stroke-linecap="round" stroke-linejoin="round">
    <circle cx="12" cy="5" r="2.5"/>
    <path d="M12 7.5v4M9 20v-4l3-3 3 3v4"/>
    <path d="M9 11.5h6"/>
  </symbol>
  <symbol id="icon-wax" viewBox="0 0 24 24" fill="none" stroke="currentColor" stroke-width="1.75" stroke-linecap="round" stroke-linejoin="round">
    <path d="M12 3c-2 4-6 5-6 9a6 6 0 0 0 12 0c0-4-4-5-6-9z"/>
    <path d="M12 8v8M9 14h6"/>
  </symbol>
  <symbol id="icon-star" viewBox="0 0 24 24">
    <path fill="currentColor" d="M12 2l2.9 6.9L22 10.2l-5.2 4.5L18.2 22 12 18.2 5.8 22l1.4-7.3L2 10.2l7.1-1.3z"/>
  </symbol>
</svg>
